<svg xmlns="http://www.w3.org/2000/svg"  viewBox="0 0 48 48" width="48px" height="48px"><linearGradient id="SVGID_1_" x1="38.914" x2="11.086" y1="10.086" y2="37.914" gradientUnits="userSpaceOnUse"><stop offset="0" stop-color="#fe60c1"/><stop offset=".033" stop-color="#fe6ac5"/><stop offset=".197" stop-color="#fe97d7"/><stop offset=".362" stop-color="#ffbde5"/><stop offset=".525" stop-color="#ffdaf0"/><stop offset=".687" stop-color="#ffeef9"/><stop offset=".846" stop-color="#fffbfd"/><stop offset="1" stop-color="#fff"/></linearGradient><path fill="url(#SVGID_1_)" d="M35.128,38.5H37.5c1.105,0,2-0.895,2-2v-8c-1.084,0-2.077,0-2.5,0c-2.485,0-4.5-2.015-4.5-4.5	s2.015-4.5,4.5-4.5c0.746,0,1.629,0,2.5,0v-8c0-1.105-0.895-2-2-2h-8c0-0.609,0-1.152,0-1.5c0-2.485-2.015-4.5-4.5-4.5	S20.5,5.515,20.5,8c0,0.489,0,0.997,0,1.5h-5.883H12.5c-1.105,0-2,0.895-2,2v8c-0.55,0-1.065,0-1.5,0c-2.485,0-4.5,2.015-4.5,4.5	s2.015,4.5,4.5,4.5c0.335,0,0.875,0,1.5,0v8c0,1.105,0.895,2,2,2h8c0,0.503,0,1.011,0,1.5c0,2.485,2.015,4.5,4.5,4.5	s4.5-2.015,4.5-4.5c0-0.313,0-0.866,0-1.5H35.128z"/><path fill="none" stroke="#fa2aab" stroke-linecap="round" stroke-linejoin="round" stroke-miterlimit="10" stroke-width="3" d="M35.128,38.5H37.5c1.105,0,2-0.895,2-2v-8c-1.084,0-2.077,0-2.5,0c-2.485,0-4.5-2.015-4.5-4.5	s2.015-4.5,4.5-4.5c0.746,0,1.629,0,2.5,0v-8c0-1.105-0.895-2-2-2h-8c0-0.609,0-1.152,0-1.5c0-2.485-2.015-4.5-4.5-4.5	S20.5,5.515,20.5,8c0,0.489,0,0.997,0,1.5"/><path fill="none" stroke="#fa2aab" stroke-linecap="round" stroke-linejoin="round" stroke-miterlimit="10" stroke-width="3" d="M14.617,9.5H12.5c-1.105,0-2,0.895-2,2v8c-0.55,0-1.065,0-1.5,0c-2.485,0-4.5,2.015-4.5,4.5s2.015,4.5,4.5,4.5	c0.335,0,0.875,0,1.5,0v8c0,1.105,0.895,2,2,2h8c0,0.503,0,1.011,0,1.5c0,2.485,2.015,4.5,4.5,4.5s4.5-2.015,4.5-4.5	c0-0.313,0-0.866,0-1.5"/></svg>